<?xml version="1.0" encoding="UTF-8"?>
<svg xmlns="http://www.w3.org/2000/svg" version="1.1" xmlns:xlink="http://www.w3.org/1999/xlink" viewBox="0 0 31.9 32">
  <!-- Generator: Adobe Illustrator 29.1.0, SVG Export Plug-In . SVG Version: 2.1.0 Build 142)  -->
  <defs>
    <style>
      .st0 {
        fill: url(#linear-gradient1);
      }

      .st1 {
        fill: #ff8b1a;
      }

      .st2 {
        fill: #be05ab;
      }

      .st3 {
        fill: none;
        stroke: #000;
        stroke-miterlimit: 10;
        stroke-width: .2px;
      }

      .st4 {
        display: none;
      }

      .st5 {
        fill: #6075ff;
      }

      .st6 {
        fill: url(#linear-gradient);
      }

      .st7 {
        fill: #e809a4;
      }
    </style>
    <linearGradient id="linear-gradient" x1="-272" y1="422.8" x2="-271.4" y2="422" gradientTransform="translate(8676 12009.1) scale(31.9 -28.4)" gradientUnits="userSpaceOnUse">
      <stop offset="0" stop-color="#41d1ff"/>
      <stop offset="1" stop-color="#bd34fe"/>
    </linearGradient>
    <linearGradient id="linear-gradient1" x1="-261.3" y1="421.7" x2="-261.2" y2="420.8" gradientTransform="translate(3837.2 11236.3) scale(14.6 -26.6)" gradientUnits="userSpaceOnUse">
      <stop offset="0" stop-color="#ffea83"/>
      <stop offset="0" stop-color="#ffdd35"/>
      <stop offset="1" stop-color="#ffa800"/>
    </linearGradient>
  </defs>
  <g id="Layer_1" class="st4">
    <path class="st6" d="M31.8,4.7l-15,26.8c-.3.6-1.1.6-1.4,0L.1,4.7c-.3-.6.2-1.3.9-1.2l15,2.7c0,0,.2,0,.3,0l14.7-2.7c.7-.1,1.2.6.9,1.2Z"/>
    <path class="st0" d="M23.1,0l-11.1,2.2c-.2,0-.3.2-.3.4l-.7,11.5c0,.2.2.4.4.4,0,0,0,0,.1,0l3.1-.7c.3,0,.5.2.5.5l-.9,4.5c0,.3.2.6.5.5l1.9-.6c.3,0,.6.2.5.5l-1.5,7.1c0,.4.5.7.7.3l.2-.3,9-18c.2-.3-.1-.6-.4-.6l-3.2.6c-.3,0-.6-.2-.5-.5l2.1-7.2c0-.3-.2-.6-.5-.5h0Z"/>
    <path class="st3" d="M34.9,0"/>
  </g>
  <g id="Layer_2">
    <circle class="st1" cx="16" cy="16" r="16"/>
  </g>
  <g id="Layer_3">
    <path class="st7" d="M17.6,0c-3.1,1.2-5.1,3.2-6.4,5.1-4.2,6-3.4,11.1-8.1,14.7-.6.5-1.3,1-2.1,1.5,2.2,6.1,8.1,10.5,15,10.5s16-7.1,16-16S25.6.9,17.6,0Z"/>
    <path class="st2" d="M19.6,9.4c-5.1,5.4-5,10.5-10.2,13.4-1.6.9-3.7,2-6.1,2.9,2.9,3.8,7.5,6.3,12.7,6.3,8.8,0,16-7.1,16-16s-1.6-8-4.2-10.8c-3.7.7-6.3,2.4-8.1,4.3Z"/>
    <path class="st5" d="M13.8,25.8c-2.3.7-5.5,1.4-8.9,1.7,2.9,2.7,6.7,4.4,11,4.4,8.8,0,16-7.1,16-16s-.1-1.9-.3-2.9c-1.9.4-3.5,1.1-4.8,2-6.2,4.1-7.3,9-13,10.7Z"/>
  </g>
</svg>